<?xml version="1.0" encoding="utf-8"?>
<!-- Generator: Adobe Illustrator 27.5.0, SVG Export Plug-In . SVG Version: 6.00 Build 0)  -->
<svg version="1.1" xmlns="http://www.w3.org/2000/svg" xmlns:xlink="http://www.w3.org/1999/xlink" x="0px" y="0px"
	 viewBox="0 0 750 500" style="enable-background:new 0 0 750 500;" xml:space="preserve">
<g id="BACKGROUND">
	<rect style="fill:#5D216E;" width="750" height="500"/>
</g>
<g id="OBJECTS">
	<g>
		<rect style="fill:#5D216E;" width="750" height="500"/>
		<g>
			<defs>
				<rect id="SVGID_1_" width="750" height="500"/>
			</defs>
			<clipPath id="SVGID_00000164484536687439989520000012821666080313053368_">
				<use xlink:href="#SVGID_1_"  style="overflow:visible;"/>
			</clipPath>
			<g style="clip-path:url(#SVGID_00000164484536687439989520000012821666080313053368_);">
				<path style="fill:#491758;" d="M140.797,344.139l-8.727,8.727c-3.318,3.318-8.698,3.318-12.017,0l-0.195-0.196
					c-3.318-3.318-3.318-8.698,0-12.017l27.31-27.311c3.318-3.318,3.318-8.698,0-12.017l-0.195-0.195
					c-3.318-3.318-8.699-3.318-12.017,0l-4.125,4.125c-3.318,3.318-8.699,3.318-12.017,0l-0.196-0.195
					c-3.318-3.318-3.318-8.698,0-12.017l10.495-10.495c3.318-3.318,3.318-8.698,0-12.017l-0.195-0.195
					c-3.318-3.318-8.698-3.318-12.017,0l-18.559,18.559c-3.318,3.318-8.698,3.318-12.017,0L86.13,288.7
					c-3.318-3.318-3.318-8.698,0-12.017l12.189-12.189c3.318-3.318,3.318-8.698,0-12.017l-0.195-0.195
					c-3.318-3.318-8.699-3.318-12.017,0L-87.141,425.531c-3.318,3.318-3.318,8.699,0,12.017l0.195,0.195
					c3.318,3.318,8.698,3.318,12.017,0l20.555-20.555c3.318-3.318,8.699-3.318,12.017,0l0.195,0.196
					c3.318,3.318,3.318,8.698,0,12.017l-12.989,12.99c-3.318,3.318-3.318,8.698,0,12.017l0.195,0.195
					c3.318,3.318,8.698,3.318,12.017,0l0,0c3.318-3.318,8.698-3.318,12.017,0l0.195,0.195c3.318,3.318,3.318,8.698,0,12.017
					l-7.566,7.566c-3.318,3.318-3.318,8.699,0,12.017l0.196,0.195c3.318,3.318,8.698,3.318,12.017,0l20.555-20.555
					c3.318-3.318,8.698-3.318,12.017,0l0.196,0.196c3.318,3.318,3.318,8.698,0,12.017l-8.727,8.727
					c-3.318,3.318-3.318,8.699,0,12.017l0.195,0.195c3.318,3.318,8.698,3.318,12.017,0L153.01,356.352
					c3.318-3.318,3.318-8.698,0-12.017l-0.195-0.195C149.496,340.821,144.116,340.821,140.797,344.139z"/>
				<path style="opacity:0.25;fill:#431453;" d="M562.279,392.966l-16.889,16.889c-6.422,6.422-16.834,6.422-23.256,0l-0.378-0.378
					c-6.422-6.422-6.422-16.834,0-23.256l52.853-52.854c6.422-6.422,6.422-16.834,0-23.256l-0.378-0.378
					c-6.422-6.422-16.834-6.422-23.256,0l-7.983,7.983c-6.422,6.422-16.834,6.422-23.256,0l-0.378-0.378
					c-6.422-6.422-6.422-16.834,0-23.256l20.311-20.311c6.422-6.422,6.422-16.834,0-23.256l-0.378-0.378
					c-6.422-6.422-16.834-6.422-23.256,0l-35.916,35.917c-6.422,6.422-16.834,6.422-23.256,0l-0.378-0.378
					c-6.422-6.422-6.422-16.834,0-23.256l23.589-23.589c6.422-6.422,6.422-16.834,0-23.256l-0.378-0.378
					c-6.422-6.422-16.834-6.422-23.256,0l-335.28,335.284c-6.422,6.422-6.422,16.834,0,23.256l0.378,0.378
					c6.422,6.422,16.834,6.422,23.256,0l39.78-39.78c6.422-6.422,16.834-6.422,23.256,0l0.378,0.378
					c6.422,6.422,6.422,16.834,0,23.256l-25.138,25.138c-6.422,6.422-6.422,16.834,0,23.256l0.378,0.378
					c6.422,6.422,16.834,6.422,23.256,0v0c6.422-6.422,16.834-6.422,23.256,0l0.378,0.378c6.422,6.422,6.422,16.834,0,23.256
					l-14.641,14.642c-6.422,6.422-6.422,16.834,0,23.256l0.378,0.378c6.422,6.422,16.834,6.422,23.256,0l39.779-39.78
					c6.422-6.422,16.834-6.422,23.256,0l0.378,0.378c6.422,6.422,6.422,16.834,0,23.256l-16.889,16.889
					c-6.422,6.422-6.422,16.834,0,23.256l0.378,0.378c6.422,6.422,16.834,6.422,23.256,0l276.425-276.429
					c6.422-6.422,6.422-16.834,0-23.256l-0.378-0.378C579.112,386.544,568.701,386.544,562.279,392.966z"/>
				<path style="opacity:0.25;fill:#491758;" d="M1039.883,199.36l-16.889,16.889c-6.422,6.422-16.834,6.422-23.256,0l-0.378-0.378
					c-6.422-6.422-6.422-16.834,0-23.256l52.853-52.854c6.422-6.422,6.422-16.834,0-23.256l-0.378-0.378
					c-6.422-6.422-16.834-6.422-23.256,0l-7.983,7.983c-6.422,6.422-16.834,6.422-23.256,0l-0.378-0.378
					c-6.422-6.422-6.422-16.834,0-23.256l20.311-20.311c6.422-6.422,6.422-16.834,0-23.256l-0.378-0.378
					c-6.422-6.422-16.834-6.422-23.256,0L957.722,92.45c-6.422,6.422-16.834,6.422-23.256,0l-0.378-0.378
					c-6.422-6.422-6.422-16.834,0-23.256l23.589-23.589c6.422-6.422,6.422-16.834,0-23.256l-0.378-0.378
					c-6.422-6.422-16.834-6.422-23.256,0l-335.28,335.284c-6.422,6.422-6.422,16.834,0,23.256l0.378,0.378
					c6.422,6.422,16.834,6.422,23.256,0l39.779-39.78c6.422-6.422,16.834-6.422,23.256,0l0.378,0.378
					c6.422,6.422,6.422,16.834,0,23.256l-25.138,25.138c-6.422,6.422-6.422,16.834,0,23.256l0.378,0.378
					c6.422,6.422,16.834,6.422,23.256,0l0,0c6.422-6.422,16.834-6.422,23.256,0l0.378,0.378c6.422,6.422,6.422,16.834,0,23.256
					l-14.641,14.642c-6.422,6.422-6.422,16.834,0,23.256l0.378,0.378c6.422,6.422,16.834,6.422,23.256,0l39.779-39.78
					c6.422-6.422,16.834-6.422,23.256,0l0.378,0.378c6.422,6.422,6.422,16.834,0,23.256l-16.889,16.889
					c-6.422,6.422-6.422,16.834,0,23.256l0.378,0.378c6.422,6.422,16.834,6.422,23.256,0l276.425-276.428
					c6.422-6.422,6.422-16.834,0-23.256l-0.378-0.378C1056.716,192.938,1046.304,192.939,1039.883,199.36z"/>
				<path style="opacity:0.25;fill:#491758;" d="M104.061,163.977l-16.889,16.889c-6.422,6.422-16.834,6.422-23.256,0l-0.378-0.378
					c-6.422-6.422-6.422-16.834,0-23.256l52.853-52.854c6.422-6.422,6.422-16.834,0-23.256l-0.378-0.378
					c-6.422-6.422-16.834-6.422-23.256,0l-7.983,7.983c-6.422,6.422-16.834,6.422-23.256,0L61.14,88.35
					c-6.422-6.422-6.422-16.834,0-23.256l20.311-20.311c6.422-6.422,6.422-16.834,0-23.256l-0.378-0.378
					c-6.422-6.422-16.834-6.422-23.256,0L21.9,57.067c-6.422,6.422-16.834,6.422-23.256,0l-0.378-0.378
					c-6.422-6.422-6.422-16.834,0-23.256L21.855,9.844c6.422-6.422,6.422-16.834,0-23.256l-0.378-0.378
					c-6.422-6.422-16.834-6.422-23.256,0l-335.28,335.284c-6.422,6.422-6.422,16.834,0,23.256l0.378,0.378
					c6.422,6.422,16.834,6.422,23.256,0l39.78-39.78c6.422-6.422,16.834-6.422,23.256,0l0.378,0.378
					c6.422,6.422,6.422,16.834,0,23.256l-25.138,25.139c-6.422,6.422-6.422,16.834,0,23.256l0.378,0.378
					c6.422,6.422,16.834,6.422,23.256,0l0,0c6.422-6.422,16.834-6.422,23.256,0l0.378,0.378c6.422,6.422,6.422,16.834,0,23.256
					l-14.641,14.642c-6.422,6.422-6.422,16.834,0,23.256l0.378,0.378c6.422,6.422,16.834,6.422,23.256,0l39.779-39.78
					c6.422-6.422,16.834-6.422,23.256,0l0.378,0.378c6.422,6.422,6.422,16.834,0,23.256l-16.889,16.889
					c-6.422,6.422-6.422,16.834,0,23.256l0.378,0.378c6.422,6.422,16.834,6.422,23.256,0l276.425-276.428
					c6.422-6.422,6.422-16.834,0-23.256l-0.378-0.378C120.895,157.555,110.483,157.555,104.061,163.977z"/>
				<path style="opacity:0.25;fill:#431453;" d="M581.884-40.501l-16.889,16.889c-6.422,6.422-16.834,6.422-23.256,0l-0.378-0.378
					c-6.422-6.422-6.422-16.834,0-23.256l52.853-52.854c6.422-6.422,6.422-16.834,0-23.256l-0.378-0.378
					c-6.422-6.422-16.834-6.422-23.256,0l-7.983,7.983c-6.422,6.422-16.834,6.422-23.256,0l-0.378-0.378
					c-6.422-6.422-6.422-16.834,0-23.256l20.311-20.311c6.422-6.422,6.422-16.834,0-23.256l-0.378-0.378
					c-6.422-6.422-16.834-6.422-23.256,0l-35.916,35.917c-6.422,6.422-16.834,6.422-23.256,0l-0.378-0.378
					c-6.422-6.422-6.422-16.834,0-23.256l23.589-23.589c6.422-6.422,6.422-16.834,0-23.256l-0.378-0.378
					c-6.422-6.422-16.834-6.422-23.256,0l-335.28,335.284c-6.422,6.422-6.422,16.834,0,23.256l0.378,0.378
					c6.422,6.422,16.834,6.422,23.256,0l39.779-39.78c6.422-6.422,16.834-6.422,23.256,0l0.378,0.378
					c6.422,6.422,6.422,16.834,0,23.256l-25.138,25.139c-6.422,6.422-6.422,16.834,0,23.256l0.378,0.378
					c6.422,6.422,16.834,6.422,23.256,0l0,0c6.422-6.422,16.834-6.422,23.256,0l0.378,0.378c6.422,6.422,6.422,16.834,0,23.256
					l-14.641,14.642c-6.422,6.422-6.422,16.834,0,23.256l0.378,0.378c6.422,6.422,16.834,6.422,23.256,0l39.78-39.78
					c6.422-6.422,16.834-6.422,23.256,0l0.378,0.378c6.422,6.422,6.422,16.834,0,23.256l-16.889,16.889
					c-6.422,6.422-6.422,16.834,0,23.256l0.378,0.378c6.422,6.422,16.834,6.422,23.256,0L605.518-16.867
					c6.422-6.422,6.422-16.834,0-23.256l-0.378-0.378C598.718-46.923,588.306-46.923,581.884-40.501z"/>
				<path style="fill:#491758;" d="M339.873,460.919l-6.261,6.262c-2.381,2.381-6.241,2.381-8.622,0l-0.14-0.14
					c-2.381-2.381-2.381-6.241,0-8.622l19.595-19.595c2.381-2.381,2.381-6.241,0-8.622l-0.14-0.14c-2.381-2.381-6.241-2.381-8.622,0
					l-2.96,2.96c-2.381,2.381-6.241,2.381-8.622,0l-0.14-0.14c-2.381-2.381-2.381-6.241,0-8.622l7.53-7.53
					c2.381-2.381,2.381-6.241,0-8.622l-0.14-0.14c-2.381-2.381-6.241-2.381-8.622,0l-13.316,13.316
					c-2.381,2.381-6.241,2.381-8.622,0l-0.14-0.14c-2.381-2.381-2.381-6.241,0-8.622l8.746-8.746c2.381-2.381,2.381-6.241,0-8.622
					l-0.14-0.14c-2.381-2.381-6.241-2.381-8.622,0L176.329,519.319c-2.381,2.381-2.381,6.241,0,8.622l0.14,0.14
					c2.381,2.381,6.241,2.381,8.622,0l14.748-14.748c2.381-2.381,6.241-2.381,8.622,0l0.14,0.14c2.381,2.381,2.381,6.241,0,8.622
					l-9.32,9.32c-2.381,2.381-2.381,6.241,0,8.622l0.14,0.14c2.381,2.381,6.241,2.381,8.622,0l0,0c2.381-2.381,6.241-2.381,8.622,0
					l0.14,0.14c2.381,2.381,2.381,6.241,0,8.622l-5.428,5.428c-2.381,2.381-2.381,6.241,0,8.622l0.14,0.14
					c2.381,2.381,6.241,2.381,8.622,0l14.748-14.748c2.381-2.381,6.241-2.381,8.622,0l0.14,0.14c2.381,2.381,2.381,6.241,0,8.622
					l-6.261,6.262c-2.381,2.381-2.381,6.241,0,8.622l0.14,0.14c2.381,2.381,6.241,2.381,8.622,0l102.484-102.486
					c2.381-2.381,2.381-6.241,0-8.622l-0.14-0.14C346.114,458.538,342.254,458.538,339.873,460.919z"/>
				<path style="fill:#4D1E5B;" d="M476.199-31.596l-6.261,6.262c-2.381,2.381-6.241,2.381-8.622,0l-0.14-0.14
					c-2.381-2.381-2.381-6.241,0-8.622l19.595-19.595c2.381-2.381,2.381-6.241,0-8.622l-0.14-0.14c-2.381-2.381-6.241-2.381-8.622,0
					l-2.96,2.96c-2.381,2.381-6.241,2.381-8.622,0l-0.14-0.14c-2.381-2.381-2.381-6.241,0-8.622l7.53-7.53
					c2.381-2.381,2.381-6.241,0-8.622l-0.14-0.14c-2.381-2.381-6.241-2.381-8.622,0l-13.316,13.316
					c-2.381,2.381-6.241,2.381-8.622,0l-0.14-0.14c-2.381-2.381-2.381-6.241,0-8.622l8.745-8.746c2.381-2.381,2.381-6.241,0-8.622
					l-0.14-0.14c-2.381-2.381-6.241-2.381-8.622,0L312.655,26.804c-2.381,2.381-2.381,6.241,0,8.622l0.14,0.14
					c2.381,2.381,6.241,2.381,8.622,0l14.748-14.748c2.381-2.381,6.241-2.381,8.622,0l0.14,0.14c2.381,2.381,2.381,6.241,0,8.622
					l-9.32,9.32c-2.381,2.381-2.381,6.241,0,8.622l0.14,0.14c2.381,2.381,6.241,2.381,8.622,0l0,0c2.381-2.381,6.241-2.381,8.622,0
					l0.14,0.14c2.381,2.381,2.381,6.241,0,8.622l-5.428,5.428c-2.381,2.381-2.381,6.241,0,8.622l0.14,0.14
					c2.381,2.381,6.241,2.381,8.622,0l14.748-14.748c2.381-2.381,6.241-2.381,8.622,0l0.14,0.14c2.381,2.381,2.381,6.241,0,8.622
					l-6.262,6.262c-2.381,2.381-2.381,6.241,0,8.622l0.14,0.14c2.381,2.381,6.241,2.381,8.622,0L484.961-22.834
					c2.381-2.381,2.381-6.241,0-8.622l-0.14-0.14C482.44-33.977,478.58-33.977,476.199-31.596z"/>
				<path style="fill:#FF5999;" d="M84.385,440.593l-5.268,5.268c-2.003,2.003-5.25,2.003-7.253,0l-0.118-0.118
					c-2.003-2.003-2.003-5.25,0-7.253l16.485-16.485c2.003-2.003,2.003-5.25,0-7.253l-0.118-0.118c-2.003-2.003-5.25-2.003-7.253,0
					l-2.49,2.49c-2.003,2.003-5.25,2.003-7.253,0l-0.118-0.118c-2.003-2.003-2.003-5.25,0-7.253l6.335-6.335
					c2.003-2.003,2.003-5.25,0-7.253l-0.118-0.118c-2.003-2.003-5.25-2.003-7.253,0l-11.202,11.202c-2.003,2.003-5.25,2.003-7.253,0
					l-0.118-0.118c-2.003-2.003-2.003-5.25,0-7.253l7.357-7.357c2.003-2.003,2.003-5.25,0-7.253l-0.118-0.118
					c-2.003-2.003-5.25-2.003-7.254,0L-53.2,489.721c-2.003,2.003-2.003,5.25,0,7.253l0.118,0.118c2.003,2.003,5.25,2.003,7.253,0
					l12.407-12.407c2.003-2.003,5.25-2.003,7.253,0l0.118,0.118c2.003,2.003,2.003,5.25,0,7.253l-7.841,7.841
					c-2.003,2.003-2.003,5.25,0,7.253l0.118,0.118c2.003,2.003,5.25,2.003,7.253,0l0,0c2.003-2.003,5.25-2.003,7.253,0l0.118,0.118
					c2.003,2.003,2.003,5.25,0,7.253l-4.567,4.567c-2.003,2.003-2.003,5.25,0,7.253l0.118,0.118c2.003,2.003,5.25,2.003,7.253,0
					l12.407-12.407c2.003-2.003,5.25-2.003,7.253,0l0.118,0.118c2.003,2.003,2.003,5.25,0,7.253l-5.268,5.268
					c-2.003,2.003-2.003,5.25,0,7.253l0.118,0.118c2.003,2.003,5.25,2.003,7.253,0l86.217-86.216c2.003-2.003,2.003-5.25,0-7.253
					l-0.118-0.118C89.635,438.59,86.388,438.59,84.385,440.593z"/>
				<path style="fill:#491758;" d="M775.057,50.414l-9.33,9.33c-3.548,3.548-9.3,3.548-12.848,0l-0.209-0.209
					c-3.548-3.548-3.548-9.3,0-12.848l29.199-29.199c3.548-3.548,3.548-9.3,0-12.848l-0.209-0.209c-3.548-3.548-9.3-3.548-12.848,0
					l-4.41,4.41c-3.548,3.548-9.3,3.548-12.848,0l-0.209-0.209c-3.548-3.548-3.548-9.3,0-12.848l11.221-11.221
					c3.548-3.548,3.548-9.3,0-12.848l-0.209-0.209c-3.548-3.548-9.3-3.548-12.848,0L729.667-8.649c-3.548,3.548-9.3,3.548-12.848,0
					l-0.209-0.209c-3.548-3.548-3.548-9.3,0-12.848l13.032-13.032c3.548-3.548,3.548-9.3,0-12.848l-0.209-0.209
					c-3.548-3.548-9.3-3.548-12.848,0L531.357,137.434c-3.548,3.548-3.548,9.3,0,12.848l0.209,0.209c3.548,3.548,9.3,3.548,12.848,0
					l21.976-21.977c3.548-3.548,9.3-3.548,12.848,0l0.209,0.209c3.548,3.548,3.548,9.3,0,12.848l-13.888,13.888
					c-3.548,3.548-3.548,9.3,0,12.848l0.209,0.209c3.548,3.548,9.3,3.548,12.848,0l0,0c3.548-3.548,9.3-3.548,12.848,0l0.209,0.209
					c3.548,3.548,3.548,9.3,0,12.848l-8.089,8.089c-3.548,3.548-3.548,9.3,0,12.848l0.209,0.209c3.548,3.548,9.3,3.548,12.848,0
					l21.976-21.977c3.548-3.548,9.3-3.548,12.848,0l0.209,0.209c3.548,3.548,3.548,9.3,0,12.848l-9.33,9.33
					c-3.548,3.548-3.548,9.3,0,12.848l0.209,0.209c3.548,3.548,9.3,3.548,12.848,0L788.113,63.471c3.548-3.548,3.548-9.3,0-12.848
					l-0.209-0.209C784.357,46.866,778.605,46.866,775.057,50.414z"/>
				<path style="fill:#F48CB7;" d="M763.198,11.755l-4.551,4.551c-2.111,2.111-5.535,2.111-7.646,0h0
					c-2.111-2.111-2.111-5.535,0-7.646l16.02-16.02c2.111-2.111,2.111-5.535,0-7.646l0,0c-2.111-2.111-5.535-2.111-7.646,0
					L661.319,83.05c-2.111,2.111-2.111,5.535,0,7.646l0,0c2.111,2.111,5.535,2.111,7.646,0l8.585-8.585
					c2.111-2.111,5.535-2.111,7.646,0h0c2.111,2.111,2.111,5.535,0,7.646l-20.055,20.055c-2.111,2.111-2.111,5.535,0,7.646l0,0
					c2.111,2.111,5.535,2.111,7.646,0L770.844,19.4c2.111-2.111,2.111-5.535,0-7.646h0C768.733,9.643,765.31,9.643,763.198,11.755z"
					/>
				<path style="fill:#F48CB7;" d="M293.925,469.155l-2.415,2.415c-1.121,1.12-2.937,1.12-4.058,0l0,0
					c-1.12-1.121-1.12-2.937,0-4.058l8.502-8.502c1.12-1.12,1.12-2.937,0-4.058l0,0c-1.121-1.121-2.937-1.121-4.058,0
					l-52.037,52.038c-1.12,1.12-1.12,2.937,0,4.058l0,0c1.12,1.12,2.937,1.12,4.058,0l4.556-4.556c1.12-1.121,2.937-1.121,4.058,0h0
					c1.12,1.12,1.12,2.937,0,4.058l-10.643,10.643c-1.12,1.12-1.12,2.937,0,4.058l0,0c1.12,1.121,2.937,1.121,4.058,0l52.037-52.038
					c1.12-1.12,1.12-2.937,0-4.058l0,0C296.862,468.035,295.045,468.035,293.925,469.155z"/>
				<path style="fill:#9CE6F0;" d="M214.014,29.829l2.415-2.415c1.12-1.121,2.937-1.121,4.058,0l0,0c1.12,1.12,1.12,2.937,0,4.058
					l-8.502,8.502c-1.12,1.121-1.12,2.937,0,4.058l0,0c1.12,1.12,2.937,1.12,4.058,0L268.08-8.007c1.12-1.121,1.12-2.937,0-4.058
					l0,0c-1.121-1.121-2.937-1.121-4.058,0l-4.556,4.556c-1.121,1.121-2.937,1.121-4.058,0l0,0c-1.12-1.121-1.12-2.937,0-4.058
					l10.643-10.643c1.12-1.121,1.12-2.937,0-4.058l0,0c-1.12-1.12-2.937-1.121-4.058,0l-52.037,52.038
					c-1.12,1.121-1.12,2.937,0,4.058v0C211.077,30.949,212.893,30.949,214.014,29.829z"/>
				<path style="fill:#9CE6F0;" d="M703.221,192.13L703.221,192.13c-1.725-1.725-1.725-4.522,0-6.247L814.557,74.522
					c1.725-1.725,4.522-1.726,6.247-0.001l0,0c1.725,1.725,1.725,4.522,0,6.247L709.468,192.129
					C707.743,193.855,704.946,193.855,703.221,192.13z"/>
				<path style="fill:#FDAD3F;" d="M460.997,143.672L460.997,143.672c-1.725-1.725-1.725-4.522,0-6.247l69.038-69.062
					c1.725-1.725,4.522-1.726,6.247-0.001v0c1.725,1.725,1.725,4.522,0,6.247l-69.038,69.062
					C465.519,145.396,462.722,145.397,460.997,143.672z"/>
				<path style="fill:#491758;" d="M171.893,326.397L171.893,326.397c-1.725-1.725-1.725-4.522,0-6.247l47.982-48.007
					c1.725-1.725,4.522-1.726,6.247-0.001l0,0c1.725,1.725,1.725,4.522,0,6.247l-47.982,48.007
					C176.415,328.122,173.618,328.122,171.893,326.397z"/>
				<path style="fill:#FF5999;" d="M-80.459,351.209L-80.459,351.209c-1.965-1.965-1.965-5.152,0-7.117L46.39,217.234
					c1.965-1.966,5.152-1.966,7.118,0v0c1.965,1.965,1.965,5.152,0,7.117L-73.342,351.209
					C-75.307,353.174-78.494,353.174-80.459,351.209z"/>
				<path style="fill:#9CE6F0;" d="M-68.382,210.444L-68.382,210.444c-0.271-0.271-0.271-0.71,0-0.981L76.872,64.191
					c0.271-0.271,0.71-0.271,0.981,0l0,0c0.271,0.271,0.271,0.71,0,0.981L-67.4,210.444
					C-67.672,210.715-68.111,210.715-68.382,210.444z"/>
				<path style="fill:#9CE6F0;" d="M5.817,565.812L5.817,565.812c-0.261-0.261-0.261-0.685,0-0.946l139.962-139.97
					c0.261-0.261,0.684-0.261,0.946,0l0,0c0.261,0.261,0.261,0.685,0,0.946L6.763,565.812
					C6.502,566.073,6.078,566.073,5.817,565.812z"/>
				<path style="fill:#F48CB7;" d="M76.467,570.458L76.467,570.458c-0.261-0.261-0.261-0.685,0-0.946l139.962-139.97
					c0.261-0.261,0.685-0.261,0.946,0l0,0c0.261,0.261,0.261,0.685,0,0.946L77.413,570.458
					C77.152,570.719,76.728,570.719,76.467,570.458z"/>
				<path style="fill:#F48CB7;" d="M67.904,570.458L67.904,570.458c-0.261-0.261-0.261-0.685,0-0.946l139.962-139.97
					c0.261-0.261,0.685-0.261,0.946,0l0,0c0.261,0.261,0.261,0.685,0,0.946L68.849,570.458
					C68.588,570.719,68.165,570.719,67.904,570.458z"/>
				<path style="fill:#F48CB7;" d="M59.34,570.458L59.34,570.458c-0.261-0.261-0.261-0.685,0-0.946l139.962-139.97
					c0.261-0.261,0.685-0.261,0.946,0l0,0c0.261,0.261,0.261,0.685,0,0.946L60.286,570.458
					C60.025,570.719,59.601,570.719,59.34,570.458z"/>
				<path style="fill:#FDAD3F;" d="M665.834,469.288L665.834,469.288c-0.261-0.261-0.261-0.685,0-0.946l139.962-139.97
					c0.261-0.261,0.685-0.261,0.946,0l0,0c0.261,0.261,0.261,0.685,0,0.946L666.78,469.288
					C666.518,469.549,666.095,469.549,665.834,469.288z"/>
				<path style="fill:#FF5999;" d="M504.597,26.771L504.597,26.771c-0.261-0.261-0.261-0.684,0-0.946l139.962-139.971
					c0.261-0.261,0.685-0.261,0.946,0l0,0c0.261,0.261,0.261,0.685,0,0.946L505.543,26.771
					C505.281,27.032,504.858,27.032,504.597,26.771z"/>
				<g>
					<polygon style="fill:#FF5999;" points="489.509,42.284 486.746,45.046 483.984,42.284 482.576,43.691 485.339,46.453 
						482.576,49.216 483.984,50.623 486.746,47.861 489.508,50.623 490.916,49.216 488.154,46.453 490.916,43.691 					"/>
					<polygon style="opacity:0.7;fill:#FF5999;" points="473.902,57.89 471.14,60.652 468.378,57.89 466.97,59.298 469.732,62.06 
						466.97,64.822 468.378,66.23 471.14,63.468 473.902,66.23 475.31,64.822 472.547,62.06 475.31,59.298 					"/>
					<polygon style="opacity:0.3;fill:#FF5999;" points="458.295,73.497 455.533,76.259 452.771,73.497 451.363,74.905 
						454.125,77.667 451.363,80.429 452.771,81.837 455.533,79.075 458.295,81.837 459.703,80.429 456.941,77.667 459.703,74.905 
											"/>
					<polygon style="opacity:0.1;fill:#FF5999;" points="443.641,88.151 440.879,90.913 438.117,88.151 436.709,89.559 
						439.471,92.321 436.709,95.083 438.117,96.491 440.879,93.729 443.641,96.491 445.049,95.083 442.287,92.321 445.049,89.559 
											"/>
				</g>
				<g>
					<polygon style="fill:#9CE6F0;" points="563.744,220.955 560.982,223.717 558.219,220.955 556.811,222.363 559.574,225.125 
						556.812,227.887 558.219,229.295 560.982,226.533 563.744,229.295 565.151,227.887 562.389,225.125 565.151,222.363 					"/>
					<polygon style="opacity:0.7;fill:#9CE6F0;" points="548.137,236.561 545.375,239.324 542.613,236.561 541.205,237.969 
						543.967,240.731 541.205,243.493 542.613,244.901 545.375,242.139 548.137,244.901 549.545,243.494 546.783,240.731 
						549.545,237.969 					"/>
					<polygon style="opacity:0.3;fill:#9CE6F0;" points="532.531,252.168 529.768,254.93 527.006,252.168 525.598,253.576 
						528.36,256.338 525.598,259.1 527.006,260.508 529.768,257.746 532.53,260.508 533.938,259.1 531.176,256.338 533.938,253.576 
											"/>
					<polygon style="opacity:0.1;fill:#9CE6F0;" points="517.876,266.822 515.114,269.584 512.352,266.822 510.944,268.23 
						513.706,270.992 510.944,273.754 512.352,275.162 515.114,272.4 517.876,275.162 519.284,273.754 516.522,270.992 
						519.284,268.23 					"/>
				</g>
				<g>
					<polygon style="fill:#9CE6F0;" points="179.731,393.302 182.493,390.54 185.255,393.302 186.663,391.894 183.901,389.132 
						186.663,386.37 185.255,384.962 182.493,387.724 179.73,384.962 178.323,386.37 181.085,389.132 178.323,391.894 					"/>
					<polygon style="opacity:0.7;fill:#9CE6F0;" points="195.337,377.694 198.099,374.932 200.861,377.694 202.269,376.286 
						199.507,373.524 202.269,370.762 200.861,369.354 198.099,372.116 195.337,369.354 193.929,370.762 196.691,373.524 
						193.929,376.286 					"/>
					<polygon style="opacity:0.3;fill:#9CE6F0;" points="210.943,362.086 213.705,359.324 216.467,362.086 217.875,360.678 
						215.113,357.916 217.875,355.154 216.467,353.746 213.705,356.508 210.943,353.746 209.535,355.154 212.297,357.916 
						209.535,360.678 					"/>
					<polygon style="opacity:0.1;fill:#9CE6F0;" points="225.596,347.431 228.358,344.669 231.121,347.431 232.529,346.023 
						229.766,343.261 232.528,340.498 231.12,339.09 228.358,341.853 225.596,339.09 224.188,340.498 226.951,343.261 
						224.189,346.023 					"/>
				</g>
				<g>
					<polygon style="fill:#DFB0F1;" points="571.408,479.988 574.17,477.225 576.933,479.988 578.34,478.58 575.578,475.818 
						578.34,473.055 576.932,471.647 574.17,474.41 571.408,471.647 570,473.055 572.763,475.817 570,478.58 					"/>
					<polygon style="opacity:0.7;fill:#DFB0F1;" points="587.014,464.38 589.776,461.617 592.539,464.38 593.946,462.972 
						591.184,460.21 593.946,457.447 592.538,456.039 589.776,458.802 587.014,456.039 585.606,457.447 588.368,460.21 
						585.606,462.972 					"/>
					<polygon style="opacity:0.3;fill:#DFB0F1;" points="602.62,448.772 605.382,446.009 608.145,448.772 609.552,447.364 
						606.79,444.602 609.552,441.839 608.144,440.431 605.382,443.194 602.62,440.431 601.212,441.839 603.975,444.602 
						601.212,447.364 					"/>
					<polygon style="opacity:0.1;fill:#DFB0F1;" points="617.274,434.116 620.036,431.354 622.798,434.117 624.206,432.709 
						621.444,429.946 624.206,427.184 622.798,425.776 620.036,428.538 617.273,425.776 615.866,427.184 618.628,429.946 
						615.866,432.709 					"/>
				</g>
				<g>
					<path style="fill:#DFB0F1;" d="M266.671,366.077c-0.492,0.492-0.492,1.29,0,1.782c0.492,0.492,1.29,0.492,1.782,0
						c0.492-0.492,0.492-1.29,0-1.782C267.961,365.584,267.163,365.584,266.671,366.077z"/>
					<path style="fill:#DFB0F1;" d="M273.183,359.564c-0.492,0.492-0.492,1.29,0,1.782c0.492,0.492,1.29,0.492,1.782,0
						c0.492-0.492,0.492-1.29,0-1.782C274.473,359.072,273.675,359.072,273.183,359.564z"/>
					<path style="fill:#DFB0F1;" d="M279.695,353.052c-0.492,0.492-0.492,1.29,0,1.782c0.492,0.492,1.29,0.492,1.782,0
						c0.492-0.492,0.492-1.29,0-1.782C280.986,352.56,280.188,352.56,279.695,353.052z"/>
					<path style="fill:#DFB0F1;" d="M286.208,346.54c-0.492,0.492-0.492,1.29,0,1.782c0.492,0.492,1.29,0.492,1.782,0
						c0.492-0.492,0.492-1.29,0-1.782C287.498,346.048,286.7,346.048,286.208,346.54z"/>
					<path style="fill:#DFB0F1;" d="M292.72,340.028c-0.492,0.492-0.492,1.29,0,1.782c0.492,0.492,1.29,0.492,1.782,0
						c0.492-0.492,0.492-1.29,0-1.782C294.01,339.535,293.212,339.535,292.72,340.028z"/>
					<path style="fill:#DFB0F1;" d="M299.232,333.515c-0.492,0.492-0.492,1.29,0,1.782c0.492,0.492,1.29,0.492,1.782,0
						c0.492-0.492,0.492-1.29,0-1.782C300.522,333.023,299.724,333.023,299.232,333.515z"/>
					<path style="fill:#DFB0F1;" d="M305.745,327.003c-0.492,0.492-0.492,1.29,0,1.782c0.492,0.492,1.29,0.492,1.782,0
						c0.492-0.492,0.492-1.29,0-1.782C307.034,326.511,306.237,326.511,305.745,327.003z"/>
				</g>
				<g>
					<path style="fill:#DFB0F1;" d="M105.696,137.687c-0.492,0.492-0.492,1.29,0,1.782c0.492,0.492,1.29,0.492,1.782,0
						s0.492-1.29,0-1.782C106.986,137.195,106.188,137.195,105.696,137.687z"/>
					<path style="fill:#DFB0F1;" d="M112.209,131.174c-0.492,0.492-0.492,1.29,0,1.782c0.492,0.492,1.29,0.492,1.782,0
						c0.492-0.492,0.492-1.29,0-1.782C113.499,130.682,112.701,130.682,112.209,131.174z"/>
					<path style="fill:#DFB0F1;" d="M118.721,124.662c-0.492,0.492-0.492,1.29,0,1.782c0.492,0.492,1.29,0.492,1.782,0
						c0.492-0.492,0.492-1.29,0-1.782C120.011,124.17,119.213,124.17,118.721,124.662z"/>
					<path style="fill:#DFB0F1;" d="M125.233,118.15c-0.492,0.492-0.492,1.29,0,1.782c0.492,0.492,1.29,0.492,1.782,0
						c0.492-0.492,0.492-1.29,0-1.782C126.523,117.658,125.725,117.658,125.233,118.15z"/>
					<path style="fill:#DFB0F1;" d="M131.745,111.638c-0.492,0.492-0.492,1.29,0,1.782c0.492,0.492,1.29,0.492,1.782,0
						c0.492-0.492,0.492-1.29,0-1.782C133.035,111.146,132.237,111.146,131.745,111.638z"/>
					<circle style="fill:#DFB0F1;" cx="139.149" cy="106.017" r="1.26"/>
					<path style="fill:#DFB0F1;" d="M144.77,98.613c-0.492,0.492-0.492,1.29,0,1.782c0.492,0.492,1.29,0.492,1.782,0
						c0.492-0.492,0.492-1.29,0-1.782C146.06,98.121,145.262,98.121,144.77,98.613z"/>
				</g>
				<g>
					<path style="fill:#FDAD3F;" d="M551.072,53.577c-0.492,0.492-0.492,1.29,0,1.782c0.492,0.492,1.29,0.492,1.782,0
						c0.492-0.492,0.492-1.29,0-1.782C552.362,53.085,551.564,53.085,551.072,53.577z"/>
					<path style="fill:#FDAD3F;" d="M557.584,47.064c-0.492,0.492-0.492,1.29,0,1.782c0.492,0.492,1.29,0.492,1.782,0
						c0.492-0.492,0.492-1.29,0-1.782C558.874,46.572,558.076,46.572,557.584,47.064z"/>
					<path style="fill:#FDAD3F;" d="M564.096,40.552c-0.492,0.492-0.492,1.29,0,1.782c0.492,0.492,1.29,0.492,1.782,0
						c0.492-0.492,0.492-1.29,0-1.782C565.387,40.06,564.589,40.06,564.096,40.552z"/>
					<path style="fill:#FDAD3F;" d="M570.609,34.04c-0.492,0.492-0.492,1.29,0,1.782c0.492,0.492,1.29,0.492,1.782,0
						c0.492-0.492,0.492-1.29,0-1.782C571.899,33.548,571.101,33.548,570.609,34.04z"/>
					<path style="fill:#FDAD3F;" d="M577.121,27.528c-0.492,0.492-0.492,1.29,0,1.782c0.492,0.492,1.29,0.492,1.782,0
						c0.492-0.492,0.492-1.29,0-1.782C578.411,27.036,577.613,27.036,577.121,27.528z"/>
					<path style="fill:#FDAD3F;" d="M583.633,21.016c-0.492,0.492-0.492,1.29,0,1.782c0.492,0.492,1.29,0.492,1.782,0
						c0.492-0.492,0.492-1.29,0-1.782C584.923,20.524,584.125,20.524,583.633,21.016z"/>
					<path style="fill:#FDAD3F;" d="M590.146,14.503c-0.492,0.492-0.492,1.29,0,1.782c0.492,0.492,1.29,0.492,1.782,0
						c0.492-0.492,0.492-1.29,0-1.782C591.435,14.011,590.638,14.011,590.146,14.503z"/>
				</g>
				<g>
					<path style="fill:#FFEFEF;" d="M612.126,96.092c-0.492,0.492-0.492,1.29,0,1.782c0.492,0.492,1.29,0.492,1.782,0
						c0.492-0.492,0.492-1.29,0-1.782C613.416,95.6,612.618,95.6,612.126,96.092z"/>
					<path style="fill:#FFEFEF;" d="M618.638,89.58c-0.492,0.492-0.492,1.29,0,1.782c0.492,0.492,1.29,0.492,1.782,0
						c0.492-0.492,0.492-1.29,0-1.782C619.928,89.088,619.13,89.088,618.638,89.58z"/>
					<path style="fill:#FFEFEF;" d="M625.15,83.068c-0.492,0.492-0.492,1.29,0,1.782c0.492,0.492,1.29,0.492,1.782,0
						c0.492-0.492,0.492-1.29,0-1.782C626.44,82.575,625.642,82.575,625.15,83.068z"/>
					<path style="fill:#FFEFEF;" d="M631.662,76.555c-0.492,0.492-0.492,1.29,0,1.782c0.492,0.492,1.29,0.492,1.782,0
						s0.492-1.29,0-1.782C632.953,76.063,632.155,76.063,631.662,76.555z"/>
					<path style="fill:#FFEFEF;" d="M638.175,70.043c-0.492,0.492-0.492,1.29,0,1.782c0.492,0.492,1.29,0.492,1.782,0
						c0.492-0.492,0.492-1.29,0-1.782C639.465,69.551,638.667,69.551,638.175,70.043z"/>
					<path style="fill:#FFEFEF;" d="M644.687,63.531c-0.492,0.492-0.492,1.29,0,1.782c0.492,0.492,1.29,0.492,1.782,0
						c0.492-0.492,0.492-1.29,0-1.782C645.977,63.039,645.179,63.039,644.687,63.531z"/>
					<path style="fill:#FFEFEF;" d="M651.199,57.019c-0.492,0.492-0.492,1.29,0,1.782c0.492,0.492,1.29,0.492,1.782,0
						c0.492-0.492,0.492-1.29,0-1.782C652.489,56.526,651.691,56.526,651.199,57.019z"/>
				</g>
				<g>
					<path style="fill:#FFEFEF;" d="M405.286,508.748c-0.492,0.492-0.492,1.29,0,1.782c0.492,0.492,1.29,0.492,1.782,0
						c0.492-0.492,0.492-1.29,0-1.782C406.576,508.256,405.778,508.256,405.286,508.748z"/>
					<path style="fill:#FFEFEF;" d="M411.798,502.236c-0.492,0.492-0.492,1.29,0,1.782c0.492,0.492,1.29,0.492,1.782,0
						c0.492-0.492,0.492-1.29,0-1.782C413.088,501.743,412.29,501.743,411.798,502.236z"/>
					<path style="fill:#FFEFEF;" d="M418.31,495.723c-0.492,0.492-0.492,1.29,0,1.782c0.492,0.492,1.29,0.492,1.782,0
						c0.492-0.492,0.492-1.29,0-1.782C419.6,495.231,418.803,495.231,418.31,495.723z"/>
					<path style="fill:#FFEFEF;" d="M424.823,489.211c-0.492,0.492-0.492,1.29,0,1.782c0.492,0.492,1.29,0.492,1.782,0
						c0.492-0.492,0.492-1.29,0-1.782C426.113,488.719,425.315,488.719,424.823,489.211z"/>
					<path style="fill:#FFEFEF;" d="M431.335,482.699c-0.492,0.492-0.492,1.29,0,1.782c0.492,0.492,1.29,0.492,1.782,0
						c0.492-0.492,0.492-1.29,0-1.782C432.625,482.207,431.827,482.207,431.335,482.699z"/>
					<path style="fill:#FFEFEF;" d="M437.847,476.187c-0.492,0.492-0.492,1.29,0,1.782c0.492,0.492,1.29,0.492,1.782,0
						c0.492-0.492,0.492-1.29,0-1.782C439.137,475.694,438.339,475.694,437.847,476.187z"/>
					<path style="fill:#FFEFEF;" d="M444.359,469.674c-0.492,0.492-0.492,1.29,0,1.782c0.492,0.492,1.29,0.492,1.782,0
						c0.492-0.492,0.492-1.29,0-1.782C445.65,469.182,444.852,469.182,444.359,469.674z"/>
				</g>
				<path style="fill:none;stroke:#FDAD3F;stroke-miterlimit:10;" d="M912.013,90.425L912.013,90.425
					c4.108,4.108,4.108,10.768,0,14.876L670.047,347.267c-4.108,4.108-10.768,4.108-14.876,0l0,0
					c-4.108-4.108-4.108-10.768,0-14.876L897.136,90.425C901.245,86.317,907.905,86.317,912.013,90.425z"/>
				<path style="fill:none;stroke:#F48CB7;stroke-miterlimit:10;" d="M68.694,141.659L68.694,141.659
					c4.108,4.108,4.108,10.768,0,14.876l-241.965,241.966c-4.108,4.108-10.768,4.108-14.876,0v0c-4.108-4.108-4.108-10.768,0-14.876
					L53.818,141.659C57.926,137.551,64.587,137.551,68.694,141.659z"/>
				<g>
					<path style="fill:#9CE6F0;" d="M378.043,417.301c0.016,0.334,0.044,0.668,0.078,1.001l19.387-19.394
						c-0.333-0.035-0.666-0.062-1-0.078L378.043,417.301z"/>
					<path style="fill:#9CE6F0;" d="M402.664,400.254c-0.254-0.11-0.51-0.213-0.768-0.31l-22.737,22.746
						c0.097,0.258,0.2,0.514,0.31,0.769L402.664,400.254z"/>
					<path style="fill:#9CE6F0;" d="M406.722,402.697c-0.2-0.161-0.402-0.319-0.608-0.471l-24.673,24.682
						c0.151,0.206,0.31,0.408,0.471,0.608L406.722,402.697z"/>
					<path style="fill:#9CE6F0;" d="M404.81,401.358c-0.226-0.137-0.454-0.267-0.685-0.393l-23.945,23.954
						c0.126,0.231,0.257,0.459,0.393,0.685L404.81,401.358z"/>
					<path style="fill:#9CE6F0;" d="M411.802,423.627c0.254-0.572,0.475-1.154,0.665-1.744l-11.37,11.375
						c0.59-0.19,1.172-0.412,1.744-0.666L411.802,423.627z"/>
					<path style="fill:#9CE6F0;" d="M397.049,434.056c0.405-0.031,0.809-0.073,1.211-0.133l14.872-14.878
						c0.059-0.402,0.101-0.806,0.132-1.211L397.049,434.056z"/>
					<path style="fill:#9CE6F0;" d="M400.251,399.416c-0.288-0.077-0.578-0.147-0.869-0.209l-20.961,20.969
						c0.062,0.291,0.132,0.581,0.209,0.869L400.251,399.416z"/>
					<path style="fill:#9CE6F0;" d="M383.47,429.209l24.945-24.955c-0.088-0.092-0.172-0.186-0.263-0.276
						c-0.09-0.09-0.185-0.175-0.276-0.263l-24.945,24.955c0.088,0.092,0.172,0.186,0.263,0.276
						C383.284,429.037,383.378,429.121,383.47,429.209z"/>
					<path style="fill:#9CE6F0;" d="M394.297,398.869c-0.405,0.032-0.809,0.073-1.211,0.133l-14.872,14.878
						c-0.059,0.402-0.101,0.806-0.132,1.211L394.297,398.869z"/>
					<path style="fill:#9CE6F0;" d="M413.303,415.623c-0.016-0.334-0.044-0.668-0.078-1.001l-19.387,19.394
						c0.333,0.035,0.666,0.062,1,0.078L413.303,415.623z"/>
					<path style="fill:#9CE6F0;" d="M379.544,409.297c-0.254,0.572-0.475,1.154-0.665,1.744l11.37-11.375
						c-0.59,0.19-1.172,0.412-1.744,0.666L379.544,409.297z"/>
					<path style="fill:#9CE6F0;" d="M411.167,408.005c-0.126-0.23-0.257-0.459-0.393-0.685l-24.237,24.246
						c0.226,0.137,0.454,0.267,0.685,0.393L411.167,408.005z"/>
					<path style="fill:#9CE6F0;" d="M412.925,412.749c-0.062-0.291-0.132-0.581-0.209-0.869l-21.621,21.629
						c0.288,0.077,0.578,0.147,0.869,0.209L412.925,412.749z"/>
					<path style="fill:#9CE6F0;" d="M409.905,406.016c-0.151-0.206-0.309-0.407-0.471-0.608l-24.81,24.819
						c0.2,0.161,0.402,0.319,0.608,0.471L409.905,406.016z"/>
					<path style="fill:#9CE6F0;" d="M412.188,410.235c-0.097-0.258-0.2-0.514-0.31-0.769l-23.196,23.204
						c0.254,0.11,0.51,0.213,0.769,0.31L412.188,410.235z"/>
				</g>
				<g>
					<path style="fill:#FF5999;" d="M61.292,350.772l-7.534,7.534c-1.405,1.405-3.682,1.405-5.087,0l0,0
						c-1.404-1.405-1.404-3.682,0-5.086l7.534-7.534c1.405-1.405,3.682-1.405,5.087,0l0,0
						C62.696,347.09,62.696,349.367,61.292,350.772z"/>
					<path style="fill:#FF5999;" d="M75.939,336.125l-3.24,3.24c-1.405,1.405-3.682,1.405-5.087,0h0
						c-1.404-1.405-1.404-3.682,0-5.086l3.24-3.24c1.405-1.405,3.682-1.404,5.087,0l0,0
						C77.343,332.443,77.343,334.72,75.939,336.125z"/>
					<path style="fill:#FF5999;" d="M87.534,324.53l-1.093,1.093c-1.405,1.405-3.682,1.405-5.087,0h0
						c-1.404-1.405-1.404-3.682,0-5.086l1.093-1.093c1.405-1.405,3.682-1.405,5.087,0v0
						C88.939,320.848,88.939,323.125,87.534,324.53z"/>
				</g>
				<g>
					<path style="fill:#DFB0F1;" d="M439.658,374.535l-4.793,4.792c-0.893,0.893-2.342,0.893-3.235,0l0,0
						c-0.893-0.893-0.893-2.342,0-3.235l4.793-4.792c0.894-0.893,2.342-0.893,3.235,0l0,0
						C440.551,372.193,440.551,373.642,439.658,374.535z"/>
					<path style="fill:#DFB0F1;" d="M448.975,365.219l-2.061,2.061c-0.894,0.893-2.342,0.893-3.235,0l0,0
						c-0.893-0.893-0.893-2.342,0-3.235l2.061-2.061c0.893-0.893,2.342-0.893,3.235,0l0,0
						C449.868,362.877,449.868,364.325,448.975,365.219z"/>
					<path style="fill:#DFB0F1;" d="M456.351,357.843l-0.695,0.695c-0.893,0.893-2.342,0.893-3.235,0l0,0
						c-0.893-0.893-0.893-2.342,0-3.235l0.696-0.695c0.893-0.893,2.342-0.893,3.235,0l0,0
						C457.245,355.501,457.244,356.95,456.351,357.843z"/>
				</g>
				<g>
					<path style="fill:#DFB0F1;" d="M307.644,82.904l4.793-4.792c0.893-0.893,2.342-0.893,3.236,0l0,0
						c0.893,0.893,0.893,2.342,0,3.235l-4.793,4.792c-0.893,0.893-2.342,0.893-3.236,0l0,0
						C306.75,85.246,306.75,83.797,307.644,82.904z"/>
					<path style="fill:#DFB0F1;" d="M298.326,92.221l2.061-2.061c0.893-0.893,2.342-0.893,3.235,0l0,0
						c0.893,0.893,0.893,2.342,0,3.235l-2.061,2.061c-0.893,0.893-2.342,0.893-3.235,0l0,0
						C297.433,94.563,297.433,93.114,298.326,92.221z"/>
					<path style="fill:#DFB0F1;" d="M290.95,99.596l0.695-0.695c0.893-0.893,2.342-0.893,3.235,0l0,0
						c0.893,0.894,0.893,2.342,0,3.235l-0.696,0.695c-0.893,0.893-2.342,0.893-3.235,0l0,0
						C290.056,101.938,290.057,100.489,290.95,99.596z"/>
				</g>
				<g>
					<path style="fill:#FF5999;" d="M5.638,68.547l-7.534,7.534c-1.405,1.405-3.682,1.405-5.087,0l0,0
						c-1.404-1.405-1.404-3.682,0-5.086l7.534-7.534c1.405-1.405,3.682-1.405,5.087,0l0,0C7.043,64.865,7.043,67.142,5.638,68.547z"
						/>
					<path style="fill:#FF5999;" d="M20.285,53.9l-3.24,3.24c-1.405,1.405-3.682,1.405-5.087,0v0c-1.405-1.405-1.404-3.682,0-5.086
						l3.24-3.24c1.405-1.405,3.682-1.405,5.087,0l0,0C21.69,50.218,21.69,52.495,20.285,53.9z"/>
					<path style="fill:#FF5999;" d="M31.881,42.305l-1.093,1.093c-1.405,1.405-3.682,1.405-5.087,0l0,0
						c-1.404-1.405-1.404-3.682,0-5.086l1.093-1.093c1.405-1.405,3.682-1.405,5.087,0l0,0C33.285,38.623,33.285,40.9,31.881,42.305z
						"/>
				</g>
				<g>
					<path style="fill:#FF5999;" d="M497.303,500.739l-7.534,7.534c-1.405,1.405-3.682,1.405-5.087,0l0,0
						c-1.405-1.405-1.404-3.682,0-5.086l7.534-7.534c1.405-1.405,3.682-1.405,5.087,0l0,0
						C498.708,497.057,498.708,499.335,497.303,500.739z"/>
					<path style="fill:#FF5999;" d="M511.95,486.092l-3.24,3.24c-1.405,1.405-3.682,1.405-5.087,0l0,0
						c-1.405-1.405-1.404-3.682,0-5.086l3.24-3.24c1.405-1.405,3.682-1.405,5.087,0l0,0
						C513.355,482.41,513.355,484.687,511.95,486.092z"/>
					<path style="fill:#FF5999;" d="M523.546,474.497l-1.093,1.093c-1.405,1.405-3.682,1.405-5.087,0l0,0
						c-1.404-1.405-1.404-3.682,0-5.086l1.093-1.093c1.405-1.405,3.682-1.405,5.087,0l0,0
						C524.951,470.815,524.951,473.093,523.546,474.497z"/>
				</g>
				<g>
					<path style="fill:#FF5999;" d="M557.514,169.671l7.534-7.534c1.405-1.405,3.682-1.405,5.086,0h0
						c1.405,1.405,1.404,3.682,0,5.087l-7.534,7.534c-1.405,1.405-3.682,1.405-5.086,0l0,0
						C556.109,173.353,556.109,171.076,557.514,169.671z"/>
					<path style="fill:#FF5999;" d="M542.867,184.318l3.24-3.24c1.405-1.405,3.682-1.404,5.086,0l0,0
						c1.404,1.405,1.404,3.682,0,5.086l-3.24,3.24c-1.405,1.404-3.682,1.404-5.086,0l0,0
						C541.462,188,541.462,185.723,542.867,184.318z"/>
					<path style="fill:#FF5999;" d="M531.271,195.913l1.093-1.093c1.405-1.404,3.682-1.404,5.086,0l0,0
						c1.405,1.405,1.404,3.682,0,5.087L536.357,201c-1.405,1.404-3.682,1.404-5.086,0l0,0
						C529.866,199.595,529.866,197.318,531.271,195.913z"/>
				</g>
				<g>
					<g>
						
							<line style="fill:none;stroke:#FDAD3F;stroke-linecap:round;stroke-linejoin:round;" x1="107.588" y1="244.677" x2="110.416" y2="241.848"/>
						
							<line style="fill:none;stroke:#FDAD3F;stroke-linecap:round;stroke-linejoin:round;stroke-dasharray:7.8554,7.8554;" x1="115.971" y1="236.294" x2="157.63" y2="194.634"/>
						
							<line style="fill:none;stroke:#FDAD3F;stroke-linecap:round;stroke-linejoin:round;" x1="160.408" y1="191.857" x2="163.236" y2="189.028"/>
					</g>
				</g>
			</g>
		</g>
	</g>
</g>
</svg>
